<svg width="494" height="582" viewBox="0 0 494 582" fill="none" xmlns="http://www.w3.org/2000/svg">
<path fill-rule="evenodd" clip-rule="evenodd" d="M456.956 531.177C469.518 513.664 466.518 488.503 450.254 474.975C433.991 461.448 410.625 464.679 398.063 482.191C385.501 499.704 388.502 524.865 404.765 538.393C420.914 551.824 444.096 548.745 456.732 531.491" fill="#557A75" fill-opacity="0.98039"/>
<path d="M456.956 531.177C469.518 513.664 466.518 488.503 450.254 474.975C433.991 461.448 410.625 464.679 398.063 482.191C385.501 499.704 388.502 524.865 404.765 538.393C420.914 551.824 444.096 548.745 456.732 531.491" stroke="#525051" stroke-width="9.00003" stroke-linecap="round" stroke-linejoin="round"/>
<path fill-rule="evenodd" clip-rule="evenodd" d="M115.456 542.177C128.018 524.664 125.018 499.503 108.754 485.975C92.4907 472.448 69.1245 475.679 56.5631 493.191C44.0013 510.704 47.0018 535.865 63.2653 549.393C79.4144 562.824 102.596 559.745 115.231 542.491" fill="#557A75" fill-opacity="0.98039"/>
<path d="M115.456 542.177C128.018 524.664 125.018 499.503 108.754 485.975C92.4907 472.448 69.1245 475.679 56.5631 493.191C44.0013 510.704 47.0018 535.865 63.2653 549.393C79.4144 562.824 102.596 559.745 115.231 542.491" stroke="#525051" stroke-width="9.00003" stroke-linecap="round" stroke-linejoin="round"/>
<path d="M438.459 426.496C438.459 509.648 354.982 577.056 252.009 577.056C149.036 577.056 65.559 509.648 65.559 426.496V377.126C65.559 293.974 149.036 226.566 252.009 226.566C354.982 226.566 438.459 293.974 438.459 377.126V426.496Z" fill="#7DB2AB" fill-opacity="0.98039" stroke="#525051" stroke-width="9"/>
<path fill-rule="evenodd" clip-rule="evenodd" d="M78.719 5.00617C66.861 4.76518 55.057 11.5855 47.25 24.7872C34.101 47.0222 37.227 78.9572 54.25 96.1312C55.7739 97.6686 57.3699 99.0261 59 100.225C25.411 129.85 5 169.302 5 212.695C5 305.172 97.754 379.605 213 379.605H281.219C396.469 379.605 489.249 305.176 489.249 212.695C489.249 170.461 469.879 131.972 437.874 102.635C442.442 99.4295 446.617 94.9771 450.03 89.323L450.249 88.9168C463.398 66.6818 460.272 34.7468 443.249 17.5728C426.226 0.398762 401.773 4.49375 388.624 26.729C381.75 38.352 379.345 52.6389 381.03 66.0729C351.432 53.1179 317.435 45.7609 281.218 45.7609H212.999C178.093 45.7609 145.267 52.6065 116.437 64.6989C118.851 46.6879 113.723 27.5899 101.875 15.6369C94.9593 8.65991 86.8319 5.17694 78.7189 5.01194L78.719 5.00617Z" fill="#7DB2AB" fill-opacity="0.98039" stroke="#525051" stroke-width="9" stroke-linecap="round" stroke-linejoin="round"/>
<g opacity="0.65844">
<path fill-rule="evenodd" clip-rule="evenodd" d="M399.25 64.7762C391.987 55.1154 393.722 41.2343 403.125 33.7723C412.528 26.3104 426.039 28.0927 433.302 37.7536C440.566 47.4144 438.83 61.2955 429.427 68.7575C420.09 76.1668 406.686 74.4684 399.382 64.9498" fill="#FBFFD8" fill-opacity="0.98039"/>
<path d="M399.25 64.7762C391.987 55.1154 393.722 41.2343 403.125 33.7723C412.528 26.3104 426.039 28.0927 433.302 37.7536C440.566 47.4144 438.83 61.2955 429.427 68.7575C420.09 76.1668 406.686 74.4684 399.382 64.9498" stroke="#8C9FB5" stroke-width="0.430026"/>
</g>
<g opacity="0.65">
<path fill-rule="evenodd" clip-rule="evenodd" d="M63.922 63.3316C56.6587 53.7977 58.3939 40.0991 67.797 32.7352C77.2005 25.3713 90.7109 27.1302 97.9742 36.6641C105.238 46.1979 103.502 59.8966 94.0991 67.2605C84.7622 74.5725 71.3584 72.8964 64.0542 63.5029" fill="#FBFFD8" fill-opacity="0.98039"/>
<path d="M63.922 63.3316C56.6587 53.7977 58.3939 40.0991 67.797 32.7352C77.2005 25.3713 90.7109 27.1302 97.9742 36.6641C105.238 46.1979 103.502 59.8966 94.0991 67.2605C84.7622 74.5725 71.3584 72.8964 64.0542 63.5029" stroke="#8C9FB5" stroke-width="0.427191"/>
</g>
<path opacity="0.65021" fill-rule="evenodd" clip-rule="evenodd" d="M209.366 519.714C188.095 497.036 193.177 464.451 220.715 446.935C248.254 429.418 287.821 433.603 309.092 456.281C330.364 478.959 325.282 511.543 297.744 529.06C270.4 546.452 231.145 542.466 209.753 520.121" fill="#FBFFD8" fill-opacity="0.98039"/>
<path fill-rule="evenodd" clip-rule="evenodd" d="M364.949 162.921C372.09 156.65 382.351 158.148 387.865 166.266C393.38 174.384 392.062 186.048 384.922 192.318C377.781 198.588 367.521 197.09 362.005 188.973C356.528 180.912 357.784 169.34 364.819 163.034" fill="#CBCBCB" fill-opacity="0.98039"/>
<path d="M364.949 162.921C372.09 156.65 382.351 158.148 387.865 166.266C393.38 174.384 392.062 186.048 384.922 192.318C377.781 198.588 367.521 197.09 362.005 188.973C356.528 180.912 357.784 169.34 364.819 163.034" stroke="#8C9FB5" stroke-width="0.233028"/>
<path fill-rule="evenodd" clip-rule="evenodd" d="M115.039 168.901C122.18 162.63 132.441 164.128 137.955 172.246C143.47 180.364 142.152 192.028 135.012 198.298C127.871 204.568 117.611 203.07 112.095 194.953C106.618 186.892 107.874 175.32 114.909 169.014" fill="#CBCBCB" fill-opacity="0.98039"/>
<path d="M115.039 168.901C122.18 162.63 132.441 164.128 137.955 172.246C143.47 180.364 142.152 192.028 135.012 198.298C127.871 204.568 117.611 203.07 112.095 194.953C106.618 186.892 107.874 175.32 114.909 169.014" stroke="#8C9FB5" stroke-width="0.233028"/>
<path fill-rule="evenodd" clip-rule="evenodd" d="M435.233 194.819C429.335 189.984 420.859 191.139 416.305 197.398C411.749 203.658 412.837 212.652 418.735 217.487C424.634 222.322 433.109 221.167 437.665 214.908C442.188 208.692 441.151 199.769 435.34 194.907" fill="#CBCBCB" fill-opacity="0.98039"/>
<path d="M435.233 194.819C429.335 189.984 420.859 191.139 416.305 197.398C411.749 203.658 412.837 212.652 418.735 217.487C424.634 222.322 433.109 221.167 437.665 214.908C442.188 208.692 441.151 199.769 435.34 194.907" stroke="#8C9FB5" stroke-width="0.185975"/>
<path fill-rule="evenodd" clip-rule="evenodd" d="M409.403 212.649C403.505 207.814 395.029 208.969 390.475 215.228C385.919 221.488 387.007 230.482 392.906 235.317C398.804 240.152 407.279 238.997 411.835 232.738C416.358 226.522 415.321 217.599 409.51 212.737" fill="#CBCBCB" fill-opacity="0.98039"/>
<path d="M409.403 212.649C403.505 207.814 395.029 208.969 390.475 215.228C385.919 221.488 387.007 230.482 392.906 235.317C398.804 240.152 407.279 238.997 411.835 232.738C416.358 226.522 415.321 217.599 409.51 212.737" stroke="#8C9FB5" stroke-width="0.185975"/>
<path fill-rule="evenodd" clip-rule="evenodd" d="M439.303 224.989C433.405 220.154 424.929 221.309 420.375 227.569C415.819 233.828 416.907 242.822 422.806 247.657C428.704 252.492 437.179 251.337 441.735 245.078C446.258 238.862 445.221 229.939 439.41 225.077" fill="#CBCBCB" fill-opacity="0.98039"/>
<path d="M439.303 224.989C433.405 220.154 424.929 221.309 420.375 227.569C415.819 233.828 416.907 242.822 422.806 247.657C428.704 252.492 437.179 251.337 441.735 245.078C446.258 238.862 445.221 229.939 439.41 225.077" stroke="#8C9FB5" stroke-width="0.185975"/>
<path fill-rule="evenodd" clip-rule="evenodd" d="M63.1973 200.329C69.0955 195.494 77.5707 196.649 82.1252 202.908C86.681 209.168 85.5927 218.162 79.6945 222.997C73.7963 227.832 65.3211 226.677 60.7653 220.418C56.2416 214.202 57.2786 205.279 63.0899 200.417" fill="#CBCBCB" fill-opacity="0.98039"/>
<path d="M63.1973 200.329C69.0955 195.494 77.5707 196.649 82.1252 202.908C86.681 209.168 85.5927 218.162 79.6945 222.997C73.7963 227.832 65.3211 226.677 60.7653 220.418C56.2416 214.202 57.2786 205.279 63.0899 200.417" stroke="#8C9FB5" stroke-width="0.185975"/>
<path fill-rule="evenodd" clip-rule="evenodd" d="M89.0253 218.149C94.9235 213.314 103.399 214.469 107.953 220.728C112.509 226.988 111.421 235.982 105.522 240.817C99.6243 245.652 91.1491 244.497 86.5933 238.238C82.0696 232.022 83.1066 223.099 88.9179 218.237" fill="#CBCBCB" fill-opacity="0.98039"/>
<path d="M89.0253 218.149C94.9235 213.314 103.399 214.469 107.953 220.728C112.509 226.988 111.421 235.982 105.522 240.817C99.6243 245.652 91.1491 244.497 86.5933 238.238C82.0696 232.022 83.1066 223.099 88.9179 218.237" stroke="#8C9FB5" stroke-width="0.185975"/>
<path fill-rule="evenodd" clip-rule="evenodd" d="M59.1193 230.489C65.0175 225.654 73.4927 226.809 78.0472 233.069C82.603 239.328 81.5147 248.322 75.6165 253.157C69.7183 257.992 61.2431 256.837 56.6873 250.578C52.1636 244.362 53.2007 235.439 59.0119 230.577" fill="#CBCBCB" fill-opacity="0.98039"/>
<path d="M59.1193 230.489C65.0175 225.654 73.4927 226.809 78.0472 233.069C82.603 239.328 81.5147 248.322 75.6165 253.157C69.7183 257.992 61.2431 256.837 56.6873 250.578C52.1636 244.362 53.2007 235.439 59.0119 230.577" stroke="#8C9FB5" stroke-width="0.185975"/>
<path opacity="0.59671" fill-rule="evenodd" clip-rule="evenodd" d="M75.3388 293.123C2.70586 230.784 20.0578 141.213 114.089 93.0626C208.124 44.9124 343.228 56.4137 415.861 118.752C488.494 181.091 471.142 270.662 377.111 318.813C283.742 366.623 149.703 355.664 76.6606 294.243" fill="#FBFFD8" fill-opacity="0.98039"/>
<path fill-rule="evenodd" clip-rule="evenodd" d="M322.007 208.876C318.226 240.465 284.357 264.663 246.357 262.924C209.524 261.238 182.109 235.739 184.163 205.075L253.204 205.727L322.007 208.876Z" fill="#F03A1F" fill-opacity="0.58904" stroke="#525051" stroke-width="7.43313" stroke-linecap="round" stroke-linejoin="round"/>
<path fill-rule="evenodd" clip-rule="evenodd" d="M367.749 162.831C374.89 156.56 385.151 158.058 390.665 166.176C396.18 174.294 394.862 185.958 387.722 192.228C380.581 198.498 370.321 197 364.805 188.883C359.328 180.822 360.584 169.25 367.619 162.944" fill="#525051"/>
<path fill-rule="evenodd" clip-rule="evenodd" d="M109.829 162.811C116.97 156.54 127.231 158.038 132.745 166.156C138.26 174.274 136.942 185.938 129.802 192.208C122.661 198.478 112.401 196.98 106.885 188.863C101.408 180.802 102.664 169.23 109.699 162.924" fill="#525051"/>
<path fill-rule="evenodd" clip-rule="evenodd" d="M438.023 198.729C432.125 193.894 423.649 195.049 419.095 201.309C414.539 207.568 415.627 216.562 421.526 221.397C427.424 226.232 435.899 225.077 440.455 218.818C444.978 212.602 443.941 203.679 438.13 198.817" fill="#B09F81"/>
<path fill-rule="evenodd" clip-rule="evenodd" d="M412.193 216.559C406.295 211.724 397.819 212.879 393.265 219.139C388.709 225.398 389.797 234.392 395.696 239.227C401.594 244.062 410.069 242.907 414.625 236.648C419.148 230.432 418.111 221.509 412.3 216.647" fill="#B09F81"/>
<path fill-rule="evenodd" clip-rule="evenodd" d="M442.103 228.899C436.205 224.064 427.729 225.219 423.175 231.478C418.619 237.738 419.707 246.732 425.605 251.567C431.504 256.402 439.979 255.247 444.535 248.988C449.058 242.772 448.021 233.849 442.21 228.987" fill="#B09F81"/>
<path fill-rule="evenodd" clip-rule="evenodd" d="M65.9953 204.239C71.8935 199.404 80.3687 200.559 84.9232 206.819C89.479 213.078 88.3907 222.072 82.4925 226.907C76.5943 231.742 68.1191 230.587 63.5633 224.328C59.0396 218.112 60.0766 209.189 65.8879 204.327" fill="#B09F81"/>
<path fill-rule="evenodd" clip-rule="evenodd" d="M91.8253 222.059C97.7235 217.224 106.199 218.379 110.753 224.639C115.309 230.898 114.221 239.892 108.323 244.727C102.424 249.562 93.9491 248.407 89.3933 242.148C84.8696 235.932 85.9066 227.009 91.7179 222.147" fill="#B09F81"/>
<path fill-rule="evenodd" clip-rule="evenodd" d="M61.9163 234.399C67.8145 229.564 76.2897 230.719 80.8442 236.978C85.4 243.238 84.3117 252.232 78.4135 257.067C72.5153 261.902 64.0401 260.747 59.4843 254.488C54.9606 248.272 55.9977 239.349 61.8089 234.487" fill="#B09F81"/>
<path d="M361.319 371.226C361.317 372.014 361.348 372.812 361.412 373.62L365.907 430.046C367.048 444.373 378.355 455.91 391.259 455.913C404.163 455.916 413.632 444.384 412.491 430.057L407.996 373.631C407.929 372.824 407.836 372.025 407.708 371.237" stroke="#525051" stroke-width="6.5753" stroke-linecap="round" stroke-linejoin="round"/>
<path d="M143.329 370.856C143.331 371.644 143.3 372.442 143.236 373.25L138.741 429.676C137.6 444.003 126.293 455.54 113.389 455.543C100.485 455.546 91.0162 444.014 92.1572 429.687L96.6516 373.261C96.719 372.454 96.8123 371.655 96.9399 370.867" stroke="#525051" stroke-width="6.5753" stroke-linecap="round" stroke-linejoin="round"/>
</svg>
